<svg width="1280" height="640" viewBox="0 0 1280 640" fill="none" xmlns="http://www.w3.org/2000/svg">
  <defs>
    <linearGradient id="bg" x1="0" y1="0" x2="1280" y2="640" gradientUnits="userSpaceOnUse">
      <stop stop-color="#F6F1E8"/>
      <stop offset="1" stop-color="#E6F3F2"/>
    </linearGradient>
    <linearGradient id="card" x1="760" y1="120" x2="1120" y2="520" gradientUnits="userSpaceOnUse">
      <stop stop-color="#0F2A43"/>
      <stop offset="1" stop-color="#143B5C"/>
    </linearGradient>
    <linearGradient id="accent" x1="0" y1="0" x2="1" y2="1">
      <stop stop-color="#0E7490"/>
      <stop offset="1" stop-color="#D97706"/>
    </linearGradient>
    <filter id="shadow" x="710" y="88" width="480" height="480" filterUnits="userSpaceOnUse" color-interpolation-filters="sRGB">
      <feFlood flood-opacity="0" result="BackgroundImageFix"/>
      <feColorMatrix in="SourceAlpha" type="matrix" values="0 0 0 0 0 0 0 0 0 0 0 0 0 0 0 0 0 0 127 0" result="hardAlpha"/>
      <feOffset dy="18"/>
      <feGaussianBlur stdDeviation="20"/>
      <feComposite in2="hardAlpha" operator="out"/>
      <feColorMatrix type="matrix" values="0 0 0 0 0.0588235 0 0 0 0 0.164706 0 0 0 0 0.262745 0 0 0 0.18 0"/>
      <feBlend mode="normal" in2="BackgroundImageFix" result="effect1_dropShadow_1_1"/>
      <feBlend mode="normal" in="SourceGraphic" in2="effect1_dropShadow_1_1" result="shape"/>
    </filter>
  </defs>

  <rect width="1280" height="640" rx="32" fill="url(#bg)"/>

  <circle cx="108" cy="106" r="42" fill="#D97706" fill-opacity="0.12"/>
  <circle cx="1030" cy="540" r="84" fill="#0E7490" fill-opacity="0.10"/>
  <circle cx="1190" cy="118" r="54" fill="#0F2A43" fill-opacity="0.05"/>
  <path d="M0 498C134 430 228 405 344 424C481 447 544 540 667 552C805 566 932 479 1030 468C1132 456 1206 493 1280 550V640H0V498Z" fill="#0F2A43" fill-opacity="0.04"/>

  <text x="92" y="124" fill="#0F2A43" font-size="20" font-family="'Avenir Next', 'Trebuchet MS', 'Segoe UI', sans-serif" font-weight="700" letter-spacing="3">PORTFOLIO CASE STUDY</text>
  <text x="92" y="236" fill="#0F2A43" font-size="92" font-family="'Avenir Next', 'Trebuchet MS', 'Segoe UI', sans-serif" font-weight="800" letter-spacing="-2">PROJECT</text>
  <text x="92" y="326" fill="#0E7490" font-size="92" font-family="'Avenir Next', 'Trebuchet MS', 'Segoe UI', sans-serif" font-weight="800" letter-spacing="-2">ATLAS</text>

  <text x="96" y="392" fill="#143B5C" font-size="28" font-family="Georgia, 'Times New Roman', serif" font-weight="700">Platform PM Operating System</text>
  <text x="92" y="446" fill="#334155" font-size="28" font-family="'Avenir Next', 'Trebuchet MS', 'Segoe UI', sans-serif" font-weight="500">Delivery visibility / Release confidence / Operational leverage</text>

  <rect x="92" y="494" width="196" height="44" rx="22" fill="#FFFFFF" fill-opacity="0.96"/>
  <text x="122" y="523" fill="#0F2A43" font-size="18" font-family="'Avenir Next', 'Trebuchet MS', 'Segoe UI', sans-serif" font-weight="700">Managed cloud</text>

  <rect x="304" y="494" width="240" height="44" rx="22" fill="#FFFFFF" fill-opacity="0.96"/>
  <text x="334" y="523" fill="#0F2A43" font-size="18" font-family="'Avenir Next', 'Trebuchet MS', 'Segoe UI', sans-serif" font-weight="700">Self-hosted delivery</text>

  <rect x="560" y="494" width="220" height="44" rx="22" fill="#FFFFFF" fill-opacity="0.96"/>
  <text x="590" y="523" fill="#0F2A43" font-size="18" font-family="'Avenir Next', 'Trebuchet MS', 'Segoe UI', sans-serif" font-weight="700">SaaS operations</text>

  <g filter="url(#shadow)">
    <rect x="750" y="110" width="400" height="400" rx="32" fill="url(#card)"/>
  </g>

  <rect x="796" y="150" width="154" height="56" rx="16" fill="#E7F6F5"/>
  <text x="824" y="186" fill="#0F2A43" font-size="20" font-family="'Avenir Next', 'Trebuchet MS', 'Segoe UI', sans-serif" font-weight="800">Cloud</text>

  <rect x="972" y="150" width="132" height="56" rx="16" fill="#FFF0DF"/>
  <text x="994" y="186" fill="#0F2A43" font-size="20" font-family="'Avenir Next', 'Trebuchet MS', 'Segoe UI', sans-serif" font-weight="800">Ops</text>

  <rect x="884" y="240" width="132" height="56" rx="16" fill="#FFFFFF"/>
  <text x="904" y="276" fill="#0F2A43" font-size="20" font-family="'Avenir Next', 'Trebuchet MS', 'Segoe UI', sans-serif" font-weight="800">Deploy</text>

  <path d="M874 200C874 219 874 222 910 239" stroke="url(#accent)" stroke-width="4" stroke-linecap="round"/>
  <path d="M1038 200C1038 218 1032 223 990 239" stroke="url(#accent)" stroke-width="4" stroke-linecap="round"/>

  <rect x="814" y="340" width="270" height="96" rx="24" fill="#0B2237" stroke="#2DD4BF" stroke-opacity="0.45" stroke-width="2"/>
  <text x="850" y="378" fill="#F8FAFC" font-size="22" font-family="'Avenir Next', 'Trebuchet MS', 'Segoe UI', sans-serif" font-weight="800">Platform PM</text>
  <text x="850" y="408" fill="#CBD5E1" font-size="18" font-family="'Avenir Next', 'Trebuchet MS', 'Segoe UI', sans-serif" font-weight="600">Operating system</text>

  <path d="M950 296V340" stroke="#2DD4BF" stroke-width="4" stroke-linecap="round"/>

  <circle cx="848" cy="468" r="9" fill="#2DD4BF"/>
  <circle cx="950" cy="468" r="9" fill="#F59E0B"/>
  <circle cx="1052" cy="468" r="9" fill="#38BDF8"/>

  <text x="810" y="498" fill="#E2E8F0" font-size="16" font-family="'Avenir Next', 'Trebuchet MS', 'Segoe UI', sans-serif" font-weight="700">Release</text>
  <text x="918" y="498" fill="#E2E8F0" font-size="16" font-family="'Avenir Next', 'Trebuchet MS', 'Segoe UI', sans-serif" font-weight="700">Leverage</text>
  <text x="1018" y="498" fill="#E2E8F0" font-size="16" font-family="'Avenir Next', 'Trebuchet MS', 'Segoe UI', sans-serif" font-weight="700">Visibility</text>
</svg>
